%
M48
M72
T01C0.02362
T02C0.03150
T03C0.03600
T04C0.12992
%
T01
X213383Y109535
T02
X241965Y108157
X251965Y113157
X261965Y113157
X271965Y113157
X281965Y113157
X291965Y113157
X301965Y113157
X311965Y113157
X321965Y113157
X331965Y113157
X341965Y113157
X351965Y113157
X361965Y113157
X301965Y103157
X291965Y103157
X241965Y98157
X241965Y88157
X241965Y78157
X241965Y68157
X241965Y58157
X251965Y53157
X261965Y53157
X271965Y53157
X281965Y53157
X291965Y53157
X301965Y53157
X311965Y53157
X321965Y53157
X331965Y53157
X341965Y53157
X351965Y53157
X361965Y53157
X175902Y52764
X165902Y52764
X155902Y52764
X145902Y52764
X135902Y52764
X125902Y52764
X115902Y52764
X105902Y52764
X95902Y52764
X85902Y52764
X85902Y62764
X95902Y62764
X105902Y62764
X115902Y62764
X125902Y62764
X135902Y62764
X145902Y62764
X155902Y62764
X165902Y62764
X175902Y62764
X175902Y72764
X165902Y72764
X155902Y72764
X145902Y72764
X135902Y72764
X125902Y72764
X115902Y72764
X105902Y72764
X95902Y72764
X85902Y72764
X85902Y87764
X95902Y87764
X105902Y87764
X115902Y87764
X125902Y87764
X135902Y87764
X145902Y87764
X155902Y87764
X165902Y87764
X175902Y87764
X175902Y102764
X165902Y102764
X155902Y102764
X145902Y102764
X135902Y102764
X125902Y102764
X115902Y102764
X105902Y102764
X95902Y102764
X85902Y102764
X85902Y112764
X95902Y112764
X105902Y112764
X115902Y112764
X125902Y112764
X135902Y112764
X145902Y112764
X155902Y112764
X165902Y112764
X175902Y112764
X175902Y122764
X165902Y122764
X155902Y122764
X145902Y122764
X135902Y122764
X125902Y122764
X115902Y122764
X105902Y122764
X95902Y122764
X85902Y122764
X85902Y132764
X95902Y132764
X105902Y132764
X115902Y132764
X125902Y132764
X135902Y132764
X145902Y132764
X155902Y132764
X165902Y132764
X175902Y132764
X175902Y142764
X165902Y142764
X155902Y142764
X145902Y142764
X135902Y142764
X125902Y142764
X115902Y142764
X105902Y142764
X95902Y142764
X85902Y142764
X85902Y152764
X95902Y152764
X105902Y152764
X115902Y152764
X125902Y152764
X135902Y152764
X145902Y152764
X155902Y152764
X165902Y152764
X175902Y152764
X175902Y42764
X165902Y42764
X155902Y42764
X145902Y42764
X135902Y42764
X125902Y42764
X115902Y42764
X105902Y42764
X95902Y42764
X85902Y42764
X85902Y32764
X95902Y32764
X105902Y32764
X115902Y32764
X125902Y32764
X135902Y32764
X145902Y32764
X155902Y32764
X165902Y32764
X175902Y32764
X175902Y22764
X165902Y22764
X155902Y22764
X145902Y22764
X135902Y22764
X125902Y22764
X115902Y22764
X105902Y22764
X95902Y22764
X85902Y22764
T03
X211965Y48157
X251965Y38157
X261965Y38157
X271965Y38157
X281965Y38157
X291965Y38157
X301965Y38157
X311965Y38157
X321965Y38157
X341965Y38157
X361965Y38157
X301965Y88157
X291965Y88157
X291965Y128157
X281965Y128157
X271965Y128157
X261965Y128157
X251965Y128157
X301965Y128157
X311965Y128157
X321965Y128157
X331965Y128157
X341965Y128157
X351965Y128157
X361965Y128157
T04
X61808Y18000
X199603Y18000
X238973Y18000
X376768Y18000
X376768Y155795
X238973Y155795
X199603Y155795
X61808Y155795
M30
