G75*
%MOIN*%
%OFA0B0*%
%FSLAX25Y25*%
%IPPOS*%
%LPD*%
%AMOC8*
5,1,8,0,0,1.08239X$1,22.5*
%
%ADD10C,0.23800*%
%ADD11R,0.23800X0.23800*%
%ADD12C,0.13792*%
%ADD13OC8,0.07100*%
%ADD14C,0.05950*%
%ADD15C,0.05950*%
%ADD16R,0.05950X0.05950*%
%ADD17C,0.01420*%
%ADD18R,0.04762X0.04762*%
D10*
X0061808Y0018000D03*
X0199603Y0155795D03*
X0238973Y0155795D03*
X0376768Y0018000D03*
D11*
X0376768Y0155795D03*
X0061808Y0155795D03*
D12*
X0199603Y0018000D03*
X0238973Y0018000D03*
D13*
X0251965Y0038157D03*
X0261965Y0038157D03*
X0271965Y0038157D03*
X0281965Y0038157D03*
X0291965Y0038157D03*
X0301965Y0038157D03*
X0311965Y0038157D03*
X0321965Y0038157D03*
X0341965Y0038157D03*
X0361965Y0038157D03*
X0301965Y0088157D03*
X0291965Y0088157D03*
X0291965Y0128157D03*
X0281965Y0128157D03*
X0271965Y0128157D03*
X0261965Y0128157D03*
X0251965Y0128157D03*
X0301965Y0128157D03*
X0311965Y0128157D03*
X0321965Y0128157D03*
X0331965Y0128157D03*
X0341965Y0128157D03*
X0351965Y0128157D03*
X0211965Y0048157D03*
D14*
X0241965Y0058157D03*
X0251965Y0053157D03*
X0261965Y0053157D03*
X0271965Y0053157D03*
X0281965Y0053157D03*
X0291965Y0053157D03*
X0301965Y0053157D03*
X0311965Y0053157D03*
X0321965Y0053157D03*
X0331965Y0053157D03*
X0341965Y0053157D03*
X0351965Y0053157D03*
X0361965Y0053157D03*
X0301965Y0103157D03*
X0291965Y0103157D03*
X0291965Y0113157D03*
X0281965Y0113157D03*
X0271965Y0113157D03*
X0261965Y0113157D03*
X0251965Y0113157D03*
X0241965Y0108157D03*
X0241965Y0098157D03*
X0241965Y0088157D03*
X0241965Y0078157D03*
X0241965Y0068157D03*
X0175902Y0072764D03*
X0165902Y0072764D03*
X0155902Y0072764D03*
X0145902Y0072764D03*
X0135902Y0072764D03*
X0125902Y0072764D03*
X0115902Y0072764D03*
X0105902Y0072764D03*
X0095902Y0072764D03*
X0085902Y0072764D03*
X0085902Y0062764D03*
X0095902Y0062764D03*
X0105902Y0062764D03*
X0115902Y0062764D03*
X0125902Y0062764D03*
X0135902Y0062764D03*
X0145902Y0062764D03*
X0155902Y0062764D03*
X0165902Y0062764D03*
X0175902Y0062764D03*
X0175902Y0052764D03*
X0165902Y0052764D03*
X0155902Y0052764D03*
X0145902Y0052764D03*
X0135902Y0052764D03*
X0125902Y0052764D03*
X0115902Y0052764D03*
X0105902Y0052764D03*
X0095902Y0052764D03*
X0085902Y0052764D03*
X0085902Y0042764D03*
X0095902Y0042764D03*
X0105902Y0042764D03*
X0115902Y0042764D03*
X0125902Y0042764D03*
X0135902Y0042764D03*
X0145902Y0042764D03*
X0155902Y0042764D03*
X0165902Y0042764D03*
X0175902Y0042764D03*
X0175902Y0032764D03*
X0165902Y0032764D03*
X0155902Y0032764D03*
X0145902Y0032764D03*
X0135902Y0032764D03*
X0125902Y0032764D03*
X0115902Y0032764D03*
X0105902Y0032764D03*
X0095902Y0032764D03*
X0085902Y0032764D03*
X0085902Y0102764D03*
X0095902Y0102764D03*
X0105902Y0102764D03*
X0115902Y0102764D03*
X0125902Y0102764D03*
X0135902Y0102764D03*
X0145902Y0102764D03*
X0155902Y0102764D03*
X0165902Y0102764D03*
X0175902Y0102764D03*
X0175902Y0112764D03*
X0165902Y0112764D03*
X0155902Y0112764D03*
X0145902Y0112764D03*
X0135902Y0112764D03*
X0125902Y0112764D03*
X0115902Y0112764D03*
X0105902Y0112764D03*
X0095902Y0112764D03*
X0085902Y0112764D03*
X0085902Y0122764D03*
X0095902Y0122764D03*
X0105902Y0122764D03*
X0115902Y0122764D03*
X0125902Y0122764D03*
X0135902Y0122764D03*
X0145902Y0122764D03*
X0155902Y0122764D03*
X0165902Y0122764D03*
X0175902Y0122764D03*
X0175902Y0132764D03*
X0165902Y0132764D03*
X0155902Y0132764D03*
X0145902Y0132764D03*
X0135902Y0132764D03*
X0125902Y0132764D03*
X0115902Y0132764D03*
X0105902Y0132764D03*
X0095902Y0132764D03*
X0085902Y0132764D03*
X0085902Y0142764D03*
X0095902Y0142764D03*
X0105902Y0142764D03*
X0115902Y0142764D03*
X0125902Y0142764D03*
X0135902Y0142764D03*
X0145902Y0142764D03*
X0155902Y0142764D03*
X0165902Y0142764D03*
X0175902Y0142764D03*
X0301965Y0113157D03*
X0311965Y0113157D03*
X0321965Y0113157D03*
X0331965Y0113157D03*
X0341965Y0113157D03*
X0351965Y0113157D03*
X0361965Y0113157D03*
D15*
X0175902Y0090339D02*
X0175902Y0085189D01*
X0165902Y0085189D02*
X0165902Y0090339D01*
X0155902Y0090339D02*
X0155902Y0085189D01*
X0145902Y0085189D02*
X0145902Y0090339D01*
X0135902Y0090339D02*
X0135902Y0085189D01*
X0125902Y0085189D02*
X0125902Y0090339D01*
X0115902Y0090339D02*
X0115902Y0085189D01*
X0105902Y0085189D02*
X0105902Y0090339D01*
X0095902Y0090339D02*
X0095902Y0085189D01*
X0085902Y0085189D02*
X0085902Y0090339D01*
D16*
X0085902Y0152764D03*
X0095902Y0152764D03*
X0105902Y0152764D03*
X0115902Y0152764D03*
X0125902Y0152764D03*
X0135902Y0152764D03*
X0145902Y0152764D03*
X0155902Y0152764D03*
X0165902Y0152764D03*
X0175902Y0152764D03*
X0175902Y0022764D03*
X0165902Y0022764D03*
X0155902Y0022764D03*
X0145902Y0022764D03*
X0135902Y0022764D03*
X0125902Y0022764D03*
X0115902Y0022764D03*
X0105902Y0022764D03*
X0095902Y0022764D03*
X0085902Y0022764D03*
D17*
X0364152Y0127842D02*
X0364862Y0127132D01*
X0363288Y0125383D01*
X0360940Y0125260D01*
X0359191Y0126834D01*
X0359068Y0129182D01*
X0360642Y0130931D01*
X0362990Y0131054D01*
X0364739Y0129480D01*
X0364862Y0127132D01*
X0363776Y0127516D01*
X0362791Y0126423D01*
X0361324Y0126346D01*
X0360231Y0127331D01*
X0360154Y0128798D01*
X0361139Y0129891D01*
X0362606Y0129968D01*
X0363699Y0128983D01*
X0363776Y0127516D01*
X0362689Y0127901D01*
X0362295Y0127464D01*
X0361709Y0127433D01*
X0361272Y0127827D01*
X0361241Y0128413D01*
X0361635Y0128850D01*
X0362221Y0128881D01*
X0362658Y0128487D01*
X0362689Y0127901D01*
D18*
X0213383Y0109535D03*
M02*
